# xmcd CD database file
#
# Track frame offsets:
#	150
#	13760
#	29830
#	51292
#	75528
#	96024
#	112526
#	128822
#	157278
#	175783
#	203351
#	219954
#
# Disc length: 3147 seconds
#
# Revision: 0
# Processed by: cddbd v1.5.2PL0 Copyright (c) Steve Scherf et al.
# Submitted via: CDex 1.51
#
DISCID=940c490c
DTITLE=Johnny And The Rest - Johnny And The Rest
DYEAR=2008
DGENRE=Blues
TTITLE0=In the Kitchen
TTITLE1=Sunday Blues
TTITLE2=Gonna Leave This Mess
TTITLE3=Summertime
TTITLE4=Rob a Bob
TTITLE5=Good Times
TTITLE6=Gambling Joe
TTITLE7=Morning Star of the Revolution
TTITLE8=Where Have You Been
TTITLE9=Under Your Spell
TTITLE10=My Skin Is Grey
TTITLE11=Say You're Still Mine
EXTD=YEAR: 2008
EXTT0=
EXTT1=
EXTT2=
EXTT3=
EXTT4=
EXTT5=
EXTT6=
EXTT7=
EXTT8=
EXTT9=
EXTT10=
EXTT11=
PLAYORDER=
